<?xml version="1.0" standalone="no"?>
<!DOCTYPE svg PUBLIC "-//W3C//DTD SVG 20010904//EN"
 "http://www.w3.org/TR/2001/REC-SVG-20010904/DTD/svg10.dtd">
<svg version="1.0" xmlns="http://www.w3.org/2000/svg"
 width="150.000000pt" height="150.000000pt" viewBox="0 0 150.000000 150.000000"
 preserveAspectRatio="xMidYMid meet">
<metadata>
Created by potrace 1.15, written by Peter Selinger 2001-2017
</metadata>
<g transform="translate(0.000000,150.000000) scale(0.100000,-0.100000)"
fill="#000000" stroke="none">
<path d="M38 1461 l-38 -39 0 -672 0 -672 39 -39 39 -39 672 0 672 0 39 39 39
39 0 672 0 672 -39 39 -39 39 -673 0 -674 -1 -37 -38z m497 -398 c86 -196 151
-384 215 -619 l28 -102 -46 -6 c-24 -3 -60 -6 -78 -6 -37 0 -31 -13 -82 175
l-19 70 -141 3 c-165 3 -145 18 -182 -133 -12 -49 -25 -93 -29 -97 -10 -12
-151 -22 -151 -12 0 19 72 264 120 405 27 80 75 206 107 280 l58 134 40 6 c22
3 56 7 76 8 l37 1 47 -107z m766 75 c33 -15 65 -39 79 -58 25 -36 37 -107 26
-165 -9 -44 -59 -103 -105 -122 l-35 -15 55 -18 c101 -34 152 -129 128 -242
-9 -43 -20 -62 -58 -98 -68 -65 -119 -81 -283 -87 -75 -3 -156 -3 -180 1 l-44
7 0 404 1 405 40 5 c22 2 51 7 65 9 14 2 77 3 140 2 99 -2 123 -6 171 -28z"/>
<path d="M397 993 c-3 -10 -26 -78 -51 -151 -25 -73 -46 -139 -46 -147 0 -12
20 -15 110 -15 74 0 110 4 110 11 0 6 -16 64 -36 128 -58 186 -74 217 -87 174z"/>
<path d="M1075 1061 l-30 -6 -3 -123 -3 -122 63 0 c113 0 174 55 165 148 -9
86 -84 126 -192 103z"/>
<path d="M1073 723 l-33 -4 0 -140 c0 -161 -4 -154 97 -154 47 0 69 5 89 21
47 35 67 70 71 126 5 59 -16 104 -61 133 -26 17 -108 26 -163 18z"/>
</g>
</svg>
